<?xml version="1.0" encoding="utf-8"?>
<!-- Generator: Adobe Illustrator 23.0.6, SVG Export Plug-In . SVG Version: 6.00 Build 0)  -->
<svg version="1.1" id="Layer_1" xmlns="http://www.w3.org/2000/svg" xmlns:xlink="http://www.w3.org/1999/xlink" x="0px" y="0px"
	 viewBox="0 0 180 19.3" style="enable-background:new 0 0 180 19.3;" xml:space="preserve">
<style type="text/css">
	.st0{fill:#83051C;}
</style>
<g transform="translate(0 -0.656)">
	<path class="st0" d="M0,14.3c1.4-0.2,1.9-1.1,2-2.4c0.1-2.6,0.4-5.2,0.6-7.8c0-0.4,0-0.8-0.1-1.2c0-0.6-0.4-1.1-1-1.2
		C1.2,1.6,1.1,1.4,0.9,1.2c0.2-0.1,0.5-0.3,0.7-0.3C2,0.9,2.5,1.1,3,1.1c0.3,0,0.7,0,1-0.1c0.5-0.3,0.7-0.1,0.9,0.4
		c1.5,3.4,3.1,6.8,4.7,10.1l0.3,0c0.1-0.2,0.2-0.4,0.4-0.6c1.3-3.2,2.6-6.4,4-9.6c0.1-0.2,0.4-0.4,0.7-0.4c0.5,0,1,0.1,1.5,0.1
		c0.4,0,0.8-0.1,1.1-0.1c0.2,0,0.3,0.2,0.5,0.3c-0.1,0.2-0.3,0.4-0.4,0.4c-0.7,0.1-1.1,0.7-1.1,1.3c-0.1,4,0.1,8,0.9,11.9
		c0.2,0.6,0.4,1.2,0.7,1.8c0.9,1.8,3.2,2.6,5,1.7c0.2-0.1,0.5-0.3,0.7-0.4c0.3-0.1,0.5-0.2,0.8-0.2c-0.1,0.3-0.1,0.6-0.3,0.8
		c-1.9,2.1-5.5,1.8-7.4-0.7c-1.1-1.7-1.8-3.7-1.9-5.7c-0.2-2.3-0.4-4.6-0.6-6.8c0-0.2-0.1-0.5-0.2-0.7c-0.2,0.4-0.4,0.7-0.5,1.1
		c-1.3,2.8-2.5,5.7-3.8,8.5c-0.2,0.3-0.4,0.5-0.6,0.7c-0.2-0.2-0.5-0.5-0.6-0.7c-1.4-2.9-2.8-5.8-4.1-8.7C4.3,5.3,4.1,5.1,3.8,4.9
		c-0.1,1.8-0.3,3.6-0.4,5.3c-0.1,0.9-0.1,1.7-0.1,2.6c-0.1,0.5,0.2,1,0.7,1.3c0.2,0.1,0.3,0.4,0.4,0.6c-0.2,0.1-0.5,0.3-0.7,0.2
		c-0.8-0.3-1.6-0.3-2.3,0c-0.5,0-0.9,0-1.3-0.1V14.3z"/>
	<path class="st0" d="M166.6,14.9c-0.1,0-0.2,0-0.3,0c-0.2,0-0.4-0.2-0.4-0.3c0-0.2,0.2-0.4,0.3-0.5c1.5-0.3,2-1.4,2.5-2.7
		c1-2.9,1.9-5.5,2.8-8c0.3-1,0.2-1.2-0.7-1.8c-0.1-0.1-0.2-0.3-0.2-0.5c0,0,0-0.1,0-0.1c0.1-0.1,0.2-0.2,0.3-0.2h0
		c0.2,0,0.5,0,0.7,0.1c0.2,0,0.3,0.1,0.5,0.1l0.1,0c0.1,0,0.2,0,0.3,0c0.1,0,0.2,0,0.3-0.1c0.1-0.1,0.3-0.1,0.4-0.2
		c0.2,0,0.4,0.2,0.5,0.6c1.5,4.2,2.8,7.6,4,10.9c0.3,1,1.2,1.7,2.3,1.9v0.5c-0.1,0-0.3,0-0.4,0c-0.2,0-0.4,0-0.6,0.1
		c-0.1,0-0.3,0-0.4,0c-0.4-0.1-0.9-0.2-1.3-0.2c-0.4,0-0.8,0.1-1.1,0.2c-0.1,0-0.1,0-0.2,0c-0.1,0-0.3,0-0.4-0.1
		c-0.1,0-0.2,0-0.3-0.1c0-0.1,0.1-0.1,0.1-0.2c0.1-0.2,0.2-0.3,0.3-0.5c0.1-0.3,0.2-0.6,0.1-0.9c-0.3-1.1-0.7-2.1-1.1-3.1
		c0-0.1-0.2-0.2-0.3-0.3c0,0-0.1,0-0.1-0.1c0,0-0.1,0-0.1,0h-0.1H174l-1.5,0l-1.8,0l-0.3,0.8l0,0.1c-0.3,0.8-0.6,1.6-0.8,2.4
		c-0.2,0.4-0.1,0.9,0.3,1.1c0,0,0,0,0.1,0c0.1,0,0.1,0.2,0.2,0.3c0,0.1,0,0.1,0.1,0.2c-0.1,0-0.1,0.1-0.2,0.1
		c-0.1,0.1-0.2,0.1-0.3,0.1c0,0,0,0-0.1,0c-0.4-0.2-0.8-0.2-1.2-0.2c-0.6,0-1.1,0.1-1.6,0.3C166.8,14.9,166.7,14.9,166.6,14.9z
		 M172.5,4.4c-0.4,1.2-0.8,2.5-1.3,3.9h2.8c0-0.1,0-0.2,0-0.2c0-0.1,0-0.3-0.1-0.4c-0.3-0.9-0.6-1.7-0.9-2.6l-0.2-0.7L172.5,4.4z"/>
	<path class="st0" d="M161.3,10.9c0-2.8,0-5.4,0-8c0-0.4-0.5-0.8-0.8-1.2c-0.1-0.2-0.2-0.4-0.3-0.5c0.2-0.1,0.4-0.3,0.6-0.3
		c1,0.5,1.9,0.1,2.9,0c0.3,0,0.6,0.2,0.8,0.3c-0.2,0.2-0.4,0.4-0.7,0.5c-0.7,0.2-1.2,0.9-1.1,1.6c0,3.5,0,7,0,10.5
		c0,0.5,0.3,1.3-0.4,1.4c-0.3,0.1-0.8-0.5-1.1-0.8c-2.7-3-5.4-6.1-8-9.2c-0.2-0.3-0.4-0.6-0.6-0.9l-0.3,0.2c-0.1,0.3-0.1,0.6-0.1,1
		c0,2.4,0,4.7,0.1,7.1c-0.1,0.7,0.3,1.3,0.9,1.6c0.1,0.1,0.2,0.3,0.3,0.5c-0.2,0.1-0.4,0.3-0.6,0.3c-1-0.3-2-0.3-2.9,0
		c-0.2,0-0.6-0.2-0.8-0.3c0.2-0.2,0.4-0.4,0.6-0.5c0.7-0.1,1.1-0.7,1.1-1.4c0.1-1.9,0.1-3.9,0.2-5.8c0-1.1,0-2.3,0-3.4
		c0.1-0.8-0.5-1.5-1.3-1.6c-0.2-0.1-0.4-0.3-0.6-0.5c0.2-0.1,0.5-0.2,0.8-0.3c0.4,0,0.8,0.2,1.1,0.2c0.4,0,0.8-0.1,1.2-0.2
		c0.2,0,0.6,0,0.7,0.2c0.6,0.8,1.1,1.6,1.7,2.4c2,2.3,4.1,4.7,6.2,7C160.8,10.6,161,10.7,161.3,10.9"/>
	<path class="st0" d="M95.9,4.2c0,3.1,0,5.9,0,8.8c0,0.3,0.5,0.7,0.7,1c0.1,0.2,0.2,0.4,0.3,0.6c-0.2,0.1-0.5,0.3-0.6,0.2
		c-0.9-0.3-1.8-0.3-2.7,0c-0.2,0.1-0.4,0.1-0.6,0c-0.1,0-0.4-0.2-0.4-0.3c0-0.2,0.2-0.4,0.3-0.4c1.2-0.2,1.4-1,1.5-2
		c0-2.9,0.1-5.9,0.1-8.8c0-0.8-0.5-1.4-1.2-1.6c-0.2-0.1-0.4-0.3-0.6-0.5c0.2-0.1,0.5-0.2,0.8-0.3c0.4,0,0.8,0.2,1.1,0.2
		c0.4,0,0.8-0.1,1.2-0.2c0.2,0,0.5,0,0.7,0.2c0.5,0.7,1,1.5,1.6,2.2c2.1,2.4,4.2,4.7,6.3,7.1c0.2,0.2,0.4,0.4,0.6,0.6
		c0-0.3,0.1-0.6,0.1-0.8c0-2.1,0-4.3,0-6.4c0-0.9,0-1.7-1-2.2c-0.1-0.1-0.2-0.2-0.2-0.4c0.1-0.1,0.2-0.2,0.4-0.3c0.1,0,0.2,0,0.2,0
		c0.9,0.3,1.9,0.3,2.8,0c0.1,0,0.2-0.1,0.3,0c0.2,0.1,0.4,0.2,0.6,0.4c-0.2,0.1-0.3,0.4-0.5,0.4c-1,0.3-1.3,0.6-1.3,1.6
		c0,3.5,0,7,0,10.5c0,0.2,0,0.4,0,0.6c-0.1,0.3-0.2,0.7-0.4,0.8c-0.2,0.1-0.6-0.1-0.8-0.3c-1.1-1.3-2.2-2.5-3.3-3.8
		c-1.8-2-3.5-4.1-5.3-6.1C96.4,4.7,96.2,4.6,95.9,4.2"/>
	<path class="st0" d="M116.4,15.2L116.4,15.2c-0.2,0-0.4-0.1-0.6-0.1c-0.5-0.1-1.2-0.2-1.9-0.4c-0.4-0.1-0.8-0.2-1.3-0.2
		c-0.3,0-0.7,0.1-1,0.2c-0.2,0.1-0.4,0.1-0.6,0.1c-0.1,0-0.1,0-0.2,0c-0.1,0-0.3-0.1-0.4-0.2c-0.1,0-0.1-0.1-0.2-0.1
		c0-0.1,0.1-0.1,0.1-0.2c0.1-0.1,0.2-0.3,0.3-0.3c0.8-0.1,1.3-0.8,1.2-1.6c0-3.4,0-6.4,0-9.4c0.1-0.7-0.4-1.4-1.2-1.5
		c-0.1,0-0.2-0.2-0.3-0.3c0-0.1-0.1-0.1-0.1-0.2l0.1-0.1c0.1-0.1,0.3-0.2,0.4-0.3c0,0,0.1,0,0.1,0c0,0,0,0,0.1,0
		c0.5,0.2,1,0.3,1.5,0.3c0.6,0,1.2-0.1,1.8-0.2h0c0.6-0.1,1.2-0.2,1.8-0.2h0c1.3,0,2.6,0.1,3.8,0.4c2.7,0.7,4.5,3.1,4.6,6.5
		c0.1,2-0.6,3.9-2,5.3C120.8,14.5,118.7,15.3,116.4,15.2z M114,7.8c0,0.5,0,1,0,1.6c0,1,0,2.1,0,3.1c-0.1,0.5,0.2,1,0.7,1.2
		c0.7,0.3,1.4,0.4,2.2,0.4c1.5,0,3-0.7,3.8-2c1.3-1.9,1.7-4.3,1.1-6.5c-0.3-1.9-1.8-3.3-3.7-3.6c-0.5-0.1-1-0.1-1.4-0.1
		c-0.5,0-1,0-1.5,0.1C114.3,2,114,2.3,114,3.3c0,1.1,0,2.1,0,3.2C114,6.9,114,7.3,114,7.8L114,7.8z"/>
	<path class="st0" d="M56.8,15.3c-1.9,0-3.8-0.7-5.2-2c-1.4-1.4-2.1-3.3-2.2-5.2c-0.1-1.9,0.6-3.8,1.9-5.2c1.5-1.4,3.4-2.1,5.4-2.1
		c0.1,0,0.2,0,0.3,0c3.7-0.1,6.8,2.9,6.9,6.6c0,0.1,0,0.2,0,0.3c0.1,2-0.5,3.9-1.8,5.4c-1.3,1.4-3.1,2.2-5.1,2.2
		C56.9,15.2,56.8,15.3,56.8,15.3z M56.8,1.8c-2.1-0.1-4,1.2-4.7,3.2c-1,2.5-0.5,5.3,1.1,7.3c0.8,1.1,2.1,1.8,3.5,1.8
		c1.6,0,3.1-0.9,3.9-2.4c0.6-1.2,1-2.4,1-3.8c-0.1-0.3-0.1-0.6-0.2-0.9c-0.1-0.7-0.3-1.4-0.4-2C60.6,3.2,58.9,1.8,56.8,1.8L56.8,1.8
		z"/>
	<path class="st0" d="M83.6,15.3L83.6,15.3c-4,0.1-7.3-3.1-7.4-7.1c0-0.1,0-0.3,0-0.4c0-1.9,0.7-3.7,2.1-5c1.5-1.3,3.4-2,5.4-2h0
		c1.9-0.1,3.7,0.7,5,2c1.3,1.4,2,3.3,1.9,5.2c0.1,2-0.6,3.9-2,5.3C87.4,14.6,85.5,15.3,83.6,15.3z M83.5,1.8c-1.7,0-3.2,0.8-4.1,2.3
		c-0.8,1.4-1.1,3.1-0.8,4.8c0.2,1.6,1,3.2,2.2,4.3c0.8,0.6,1.7,1,2.7,1c1.3,0,2.5-0.6,3.3-1.6c1-1.3,1.5-2.9,1.6-4.6
		c-0.1-0.3-0.1-0.6-0.1-0.9c-0.1-0.6-0.2-1.3-0.4-1.9c-0.4-1.8-1.8-3.1-3.6-3.4C84.1,1.8,83.8,1.8,83.5,1.8z"/>
	<path class="st0" d="M131.3,14.9c-0.1,0-0.2,0-0.3,0c-0.6-0.2-1.2-0.3-1.7-0.3c-0.6,0-1.2,0.1-1.7,0.3c-0.1,0-0.2,0-0.3,0
		c-0.1,0-0.2,0-0.3-0.1c-0.1,0-0.3-0.2-0.3-0.3c0-0.2,0.1-0.3,0.3-0.4c1.2-0.2,1.4-1.2,1.4-2.1c0-3.1,0-5.9,0-8.3
		c0-0.9-0.1-1.9-1.3-2c-0.1,0-0.2-0.1-0.2-0.3c0-0.1-0.1-0.1-0.1-0.2c0,0,0.1-0.1,0.1-0.1c0.1-0.1,0.2-0.2,0.3-0.2
		c0.1,0,0.2,0,0.3,0c0.1,0,0.3,0,0.4,0.1c0.4,0.2,0.7,0.2,1.1,0.2c0.5,0,0.9-0.1,1.4-0.2l0.3-0.1c0.6-0.1,1.2-0.2,1.8-0.2
		c0.3,0,0.6,0,0.9,0.1c1.3,0.3,2.3,1.2,2.7,2.5c0.4,1.3,0.1,2.8-0.9,3.8c-0.3,0.3-0.7,0.7-1.1,1c-0.2,0.1-0.4,0.3-0.5,0.4
		c0.4,0.4,0.7,0.9,1.1,1.3c0.9,1.1,1.9,2.3,2.9,3.3c0.4,0.3,0.8,0.6,1.3,0.7c0.2,0.1,0.5,0.2,0.7,0.3c0.1,0.1,0.3,0.2,0.4,0.3
		c0.1,0.1,0.1,0.1,0.2,0.1c-0.1,0-0.1,0.1-0.2,0.2c-0.1,0.1-0.3,0.2-0.4,0.2c-0.2,0-0.4,0-0.5,0c-1.8,0.1-3.6-0.8-4.6-2.3
		c-0.8-1.1-1.7-2.1-2.5-3.1c-0.3-0.4-0.7-0.6-1.2-0.7c-0.2,0-0.3,0-0.5,0.1c0,0.4,0,0.7,0,1.1c0,0.9,0.1,1.7,0.1,2.5
		c0,0.7,0.5,1.4,1.2,1.5c0.1,0.1,0.2,0.1,0.3,0.3c0,0.1,0.1,0.1,0.1,0.2c-0.1,0-0.1,0.1-0.2,0.1c-0.1,0.1-0.3,0.2-0.4,0.3
		C131.4,14.9,131.4,14.9,131.3,14.9z M130.4,7.7h0.3h0c0.1,0,0.2,0,0.3,0c0.1,0,0.3,0,0.4,0c1.1,0,2.2-0.6,2.6-1.7
		c0.5-1.2,0.3-2.5-0.4-3.5c-0.3-0.5-0.9-0.7-1.5-0.7c-0.2,0-0.5,0-0.7,0.1c-0.8,0.2-1,0.9-1,1.5c0,1,0,2,0,3
		C130.4,6.8,130.4,7.2,130.4,7.7L130.4,7.7z"/>
	<path class="st0" d="M41.9,0.7c0.6,0.1,1.4,0.1,2.1,0.2c0.3,0,0.6,0,0.9,0c1-0.1,1-0.1,0.9,0.9c0,0.3,0.1,0.7,0.2,1
		c0.1,0.4,0.1,0.8,0.1,1.2c0,0.2-0.2,0.4-0.4,0.5c-0.1,0-0.4-0.2-0.4-0.3c-0.6-2.2-3-2.6-5.2-2.3c-2.1,0.3-3.8,2-4.1,4.1
		c-0.3,1.9-0.1,3.8,0.8,5.5c1.3,2.2,3.9,3.1,6.2,2.2c0.7-0.2,1.2-0.9,1.1-1.7c0-0.4,0-0.7,0-1.1c0-0.6-0.3-1.2-0.8-1.5
		c-0.2-0.1-0.2-0.4-0.4-0.6c0.2-0.1,0.5-0.2,0.7-0.2c0.9,0.3,1.9,0.3,2.8,0c0.2-0.1,0.4,0.1,0.7,0.2c-0.1,0.2-0.2,0.4-0.3,0.5
		c-0.2,0.4-0.6,0.7-0.6,1.1c0,1,0,2,0.2,2.9c0.1,0.5,0.1,0.8-0.6,0.9c-0.8,0.1-1.7,0.3-2.5,0.5c-2.9,1-6.6,0-8.2-2.4
		c-1.7-2.3-2-5.3-0.7-7.9C35.6,2,37.8,1,40.5,0.7C40.9,0.7,41.4,0.7,41.9,0.7"/>
	<path class="st0" d="M71.5,13.5c1.2,0.1,2.3-0.4,2.9-1.4c0.1-0.2,0.4-0.2,0.5-0.3c0.1,0.2,0.3,0.5,0.2,0.7
		c-0.1,0.4-0.3,0.8-0.4,1.2c-0.1,0.2-0.3,0.4-0.2,0.6c0.3,1.2-0.4,0.8-1.1,0.8c-1.9-0.3-3.9-0.4-5.8-0.1c-0.3,0.1-0.6,0.1-0.9,0.1
		c-0.2-0.1-0.5-0.2-0.7-0.3c0.2-0.2,0.3-0.4,0.6-0.5c0.6-0.1,1-0.7,1-1.3c0-3.2,0-6.4,0-9.6c0.1-0.7-0.5-1.4-1.2-1.5
		c-0.2,0-0.3-0.3-0.4-0.5c0.2-0.1,0.4-0.4,0.5-0.3c1.4,0.3,2.9,0.3,4.3,0c0.1,0,0.3,0.2,0.5,0.3c-0.1,0.2-0.3,0.4-0.4,0.5
		c-0.7,0.1-1.2,0.8-1.2,1.5c0,2.9-0.1,5.9,0,8.8c0,1.3,0.2,1.4,1.5,1.5C71.3,13.5,71.4,13.5,71.5,13.5"/>
	<path class="st0" d="M24.6,15c-1.3-0.5-2.6-0.5-3.9-0.1c-0.2,0-0.5-0.2-0.7-0.3c0.2-0.2,0.3-0.5,0.5-0.5c0.6-0.1,1.1-0.7,1-1.4
		c0-3.2,0-6.3,0-9.5c0.1-0.7-0.4-1.4-1.2-1.5c-0.2,0-0.3-0.3-0.5-0.4c0.2-0.1,0.4-0.3,0.6-0.4c0.1,0,0.2,0,0.3,0
		c1.2,0.4,2.4,0.4,3.6,0c0.2-0.1,0.6,0.2,0.8,0.3c-0.2,0.2-0.4,0.4-0.6,0.5c-0.6,0.2-0.9,0.7-0.9,1.3c-0.1,1.5-0.1,3-0.1,4.4
		c0,1.8,0.1,3.5,0.2,5.3c0,0.6,0.4,1.2,1,1.3c0.2,0.1,0.4,0.3,0.6,0.5L24.6,15"/>
	<path class="st0" d="M146.2,15c-1.2-0.5-2.6-0.5-3.9-0.1c-0.2,0.1-0.5-0.2-0.8-0.3c0.2-0.2,0.3-0.4,0.6-0.5c0.6-0.2,1.1-0.7,1-1.4
		c0-3.1,0-6.3,0-9.4c0.1-0.8-0.5-1.4-1.2-1.6c-0.2,0-0.3-0.3-0.4-0.5c0.2-0.1,0.4-0.4,0.5-0.3c1.4,0.3,2.9,0.3,4.4,0
		c0.1,0,0.3,0.2,0.4,0.3c-0.1,0.2-0.2,0.4-0.4,0.4c-0.8,0.1-1.4,0.9-1.3,1.7c0,0,0,0,0,0c0,3.1,0,6.3,0.1,9.4c0,0.6,0.4,1.1,1,1.3
		c0.2,0.1,0.4,0.3,0.6,0.5L146.2,15"/>
</g>
</svg>
