<?xml version="1.0" encoding="utf-8"?>
<!-- Generator: Adobe Illustrator 23.0.6, SVG Export Plug-In . SVG Version: 6.00 Build 0)  -->
<svg version="1.1" id="Layer_1" xmlns="http://www.w3.org/2000/svg" xmlns:xlink="http://www.w3.org/1999/xlink" x="0px" y="0px"
	 viewBox="0 0 120 64.2" style="enable-background:new 0 0 120 64.2;" xml:space="preserve">
<style type="text/css">
	.st0{fill:none;}
	.st1{clip-path:url(#SVGID_2_);}
	.st2{fill:#83051C;}
	.st3{clip-path:url(#SVGID_4_);}
	.st4{clip-path:url(#SVGID_6_);}
	.st5{clip-path:url(#SVGID_8_);}
</style>
<g transform="translate(0 -1)">
	<g transform="translate(44 0.202)">
		<path class="st0" d="M0.1,0.8h31.9v28.6H0.1V0.8z"/>
		<g>
			<defs>
				<rect id="SVGID_1_" x="0.1" y="0.8" width="31.9" height="28.6"/>
			</defs>
			<clipPath id="SVGID_2_">
				<use xlink:href="#SVGID_1_"  style="overflow:visible;"/>
			</clipPath>
			<g class="st1">
				<path class="st2" d="M7.7,29.4c-0.2,0-0.3-0.1-0.4-0.2c-0.1-0.1-0.1-0.2,0-0.4c0.1-0.1,0.2-0.2,0.3-0.3c0.3-0.1,0.6-0.2,0.8-0.3
					c0.3-0.1,0.7-0.2,1-0.4c0.3-0.1,0.5-0.2,0.8-0.3c0.1-0.1,0.2-0.1,0.3-0.2c0.2-0.1,0.4-0.2,0.7-0.3c0.1,0,0.1-0.1,0.1-0.1
					l0.2-0.1l0,0c0.3-0.2,0.5-0.3,0.8-0.5c0.1-0.1,0.2-0.2,0.3-0.2c0.1-0.1,0.1-0.1,0.2-0.2s0.1-0.1,0.2-0.2
					c0.2-0.1,0.3-0.3,0.5-0.4c0.2-0.1,0.3-0.2,0.5-0.3c0.2-0.1,0.3-0.1,0.5-0.2c0.1-0.1,0.3-0.2,0.3-0.4c0.1-0.3,0.3-0.7,0.6-0.9
					c0.1-0.1,0.2-0.2,0.2-0.3c0.1-0.2,0.2-0.4,0.3-0.6c0.1-0.4,0.4-0.7,0.8-0.9c0.3-0.1,0.6-0.2,0.9-0.4c0.1-0.1,0.2-0.1,0.3-0.2
					c0.1,0,0.2-0.1,0.3-0.1c0.2-0.1,0.3-0.2,0.2-0.4c0-0.1-0.1-0.2-0.2-0.2c-0.1,0-0.2,0-0.2,0.1c-0.2,0.1-0.5,0.1-0.7,0.2h0
					c-0.1,0-0.2-0.1-0.3-0.1c-0.7-0.9-1.7-1.5-2.9-1.8c-1.6-0.5-3.4-1.1-5.1-1.6c-1.8-0.6-3.6-1.4-5.2-2.4C3.5,14.5,3,14.3,2.6,14
					c-0.5-0.3-0.9-0.5-1.4-0.8C1,13,0.7,12.8,0.5,12.6c-0.1-0.1-0.2-0.2-0.3-0.3c-0.1,0-0.1-0.1-0.1-0.2c0-0.1,0-0.3-0.1-0.4
					c0-0.1,0-0.1,0-0.2c0.1,0,0.1,0,0.2,0c0.1,0,0.2,0,0.3,0L1.1,12l0,0c0.9,0.4,1.8,0.9,2.6,1.3c1.7,0.9,3.6,1.5,5.5,1.8
					c0.2,0,0.4,0.1,0.7,0.1c0.4,0.1,0.9,0.2,1.3,0.3c0.1,0,0.3,0,0.4,0c0.3,0,0.6,0,0.9-0.1c0.2,0,0.3-0.1,0.3-0.2s0-0.2-0.1-0.4
					c-0.2-0.3-0.5-0.7-0.7-1v0c-0.5-0.8-1.1-1.6-1.6-2.4c-0.2-0.2-0.3-0.5-0.5-0.7C8.8,9.4,8,8,7.2,6.5C6.8,5.6,6.5,4.8,6.1,3.9
					L5.8,3.2C5.8,3.1,5.7,2.9,5.7,2.8c0-0.1,0-0.1-0.1-0.2l0.1-0.1l0,0c0.1,0,0.1,0.1,0.2,0.1C6,2.7,6.2,2.8,6.3,2.9L6.4,3
					c0.5,0.6,1,1.2,1.4,1.9c0.3,0.5,0.6,0.9,0.9,1.4c0.5,0.9,1.1,1.8,1.8,2.6c1.5,1.9,3.2,3.7,5,5.4c0.6,0.5,1.3,0.9,2.1,1.1
					c1.1,0.3,2.3,0.5,3.4,0.7c0.4,0.1,0.7,0.1,1.1,0.2h0c0,0,0,0,0.1,0l0.1,0c0,0-0.1-0.1-0.1-0.1C22,16.1,22,16,21.9,16
					c-0.1-0.1-0.1-0.2-0.1-0.3c0-0.6,0.2-1.2,0.6-1.7c0.3-0.5,0.4-1,0.4-1.5c0-0.2,0-0.5,0-0.7c0-0.4,0-0.9,0-1.3
					c0-0.1,0-0.3,0.1-0.4c0.2-0.8,0.2-1.7-0.2-2.5c-0.1-0.3-0.1-0.5-0.1-0.8c0-0.1,0-0.2,0-0.2c0-0.4-0.1-0.9-0.4-1.2
					c0,0-0.1-0.1-0.1-0.1c-0.4-0.8-0.8-1.6-1.4-2.4c-0.2-0.3-0.4-0.6-0.6-0.9C20,1.6,20,1.6,19.9,1.5c-0.1-0.2,0-0.4,0.2-0.5
					c0,0,0,0,0.1,0c0,0,0.1,0,0.1-0.1l0,0h0.1c0.3,0.1,0.5,0.4,0.7,0.7c0.1,0.1,0.2,0.3,0.3,0.4c0.3,0.3,0.5,0.6,0.8,0.9
					c0.3,0.3,0.6,0.6,0.9,1L23.3,4c1.1,1.2,2.1,2.5,3.1,3.8c0.6,0.9,1,1.8,1.3,2.9v0c0,0.1,0.1,0.3,0.1,0.4c0.6,1.9,0.4,3.9-0.6,5.6
					c0,0,0,0.1-0.1,0.1l0,0.1l0.3,0.1c0.2,0.1,0.5,0.1,0.7,0.2c0.6,0.2,1.2,0.6,1.7,1.2c0.5,0.6,1,1,1.7,1.3c0,0,0.1,0,0.1,0.1
					c0.2,0.1,0.3,0.3,0.3,0.4s-0.1,0.2-0.3,0.3c-0.4,0.2-0.7,0.5-1.1,0.8c-0.1,0.1-0.2,0.2-0.3,0.2c-1.5,1.1-3.3,1.8-5.1,1.9l-0.1,0
					c-0.3,0-0.6,0.1-0.9,0.1c-0.3,0-0.4,0.1-0.5,0.4c-0.1,0.1-0.1,0.2-0.2,0.3c-0.2,0.6-0.5,1.1-0.9,1.7c-0.6,0.9-1.4,1.5-2.5,1.8
					c-1.1,0.4-2.2,0.6-3.4,0.6h-0.2h-0.2c-0.7,0-1.3,0.1-2,0.2c-0.3,0-0.6,0.1-0.9,0.1L10.9,29h0c-1,0.1-2,0.2-3,0.4h0
					C7.8,29.4,7.8,29.4,7.7,29.4z M24.9,22.2L24.9,22.2c-0.5,0-0.8,0.4-0.9,0.8h0.1h0.1c0,0,0.1,0,0.1,0c0.2,0,0.5-0.1,0.7-0.1
					c0.6-0.1,1.2-0.1,1.8-0.3c1.2-0.2,2.3-0.8,3.1-1.7c0.3-0.2,0.4-0.6,0.5-1c-0.1-0.3-0.3-0.6-0.6-0.8c-0.4-0.3-0.9-0.4-1.4-0.4
					c-0.7,0-1.3,0.2-1.8,0.6c-0.1,0.1-0.1,0.2-0.2,0.3c0,0.1-0.1,0.1-0.1,0.2l0.2,0c0.1,0,0.1,0,0.1,0l0,0l2.3-0.5
					c0.1,0,0.1,0,0.2,0c0.2,0,0.3,0.1,0.4,0.2c0.2,0.3,0.2,0.6,0.1,0.9c-0.1,0.1-0.2,0.2-0.3,0.3c-0.1,0-0.2-0.1-0.3-0.2
					c-0.2-0.2-0.4-0.4-0.7-0.4h0c-0.6,0.1-1.2,0.3-1.7,0.7c0,0-0.1,0.2,0,0.2c0,0,0.1,0.1,0.2,0.1h0c0.1,0,0.1,0,0.2,0
					c0.1,0,0.1,0,0.2,0h0c0.1,0,0.2,0,0.2,0.1c0,0,0.1,0,0.1,0c0,0,0,0.1,0,0.1c0,0.1,0,0.2-0.1,0.2c-0.2,0.1-0.3,0.2-0.5,0.3
					c-0.1,0-0.2,0.1-0.3,0.1l0,0c-0.1,0-0.1,0.1-0.2,0.1c-0.1,0.2-0.3,0.3-0.4,0.3c-0.1,0-0.2,0-0.3-0.1
					C25.3,22.2,25.1,22.2,24.9,22.2L24.9,22.2z"/>
			</g>
		</g>
	</g>
	<path class="st2" d="M0,49.4c1-0.1,1.3-0.7,1.3-1.6c0.1-1.7,0.3-3.4,0.4-5.1c0-0.3,0-0.5-0.1-0.8c0-0.4-0.3-0.7-0.7-0.8
		c-0.1,0-0.2-0.2-0.3-0.3c0.1-0.1,0.3-0.2,0.5-0.2c0.3,0,0.6,0.1,0.9,0.1c0.2,0,0.4,0,0.6-0.1c0.4-0.2,0.4-0.1,0.6,0.2
		c1,2.2,2.1,4.5,3.1,6.7l0.2,0c0.1-0.1,0.2-0.3,0.2-0.4c0.9-2.1,1.8-4.2,2.7-6.3c0.1-0.1,0.3-0.2,0.4-0.2c0.3,0,0.7,0.1,1,0.1
		c0.3,0,0.5-0.1,0.8-0.1c0.1,0,0.2,0.1,0.3,0.2c-0.1,0.1-0.2,0.3-0.3,0.3c-0.4,0.1-0.7,0.4-0.7,0.9c-0.1,2.6,0.1,5.2,0.6,7.8
		c0.1,0.4,0.3,0.8,0.5,1.2c0.6,1.2,2.1,1.7,3.4,1.1c0.1-0.1,0.3-0.2,0.4-0.3c0.2-0.1,0.3-0.1,0.5-0.1c-0.1,0.2-0.1,0.4-0.2,0.6
		c-1.3,1.2-3.4,1.2-4.6-0.1c-0.1-0.1-0.2-0.2-0.3-0.3c-0.8-1.1-1.2-2.4-1.3-3.8c-0.2-1.5-0.3-3-0.4-4.5c0-0.2-0.1-0.3-0.1-0.4
		c-0.1,0.2-0.2,0.5-0.4,0.7c-0.8,1.9-1.7,3.7-2.5,5.6c-0.1,0.2-0.3,0.3-0.4,0.5c-0.2-0.1-0.3-0.3-0.4-0.5c-0.9-1.9-1.8-3.8-2.8-5.7
		c-0.1-0.2-0.2-0.4-0.4-0.5c-0.1,1.2-0.2,2.3-0.3,3.5c0,0.6,0,1.1-0.1,1.7c0,0.3,0.1,0.7,0.5,0.8c0.1,0.1,0.2,0.2,0.3,0.4
		c-0.2,0-0.4,0.2-0.5,0.1c-0.5-0.2-1-0.2-1.6,0c-0.3,0-0.6,0-0.9,0V49.4z"/>
	<path class="st2" d="M111.1,49.8c-0.1,0-0.1,0-0.2,0c-0.1,0-0.3-0.1-0.3-0.2c0-0.1,0.1-0.3,0.2-0.3c1-0.2,1.3-0.9,1.7-1.8
		c0.7-1.9,1.3-3.6,1.8-5.3c0.2-0.7,0.2-0.8-0.5-1.2c-0.1-0.1-0.2-0.2-0.2-0.3c0,0,0,0,0,0c0.1-0.1,0.1-0.1,0.2-0.1h0
		c0.2,0,0.3,0,0.5,0.1c0.1,0,0.2,0,0.3,0.1l0.1,0c0.1,0,0.1,0,0.2,0c0.1,0,0.1,0,0.2,0c0.1-0.1,0.2-0.1,0.3-0.1
		c0.2,0,0.2,0.2,0.3,0.4c1,2.7,1.8,5,2.7,7.2c0.2,0.7,0.8,1.2,1.5,1.2v0.3c-0.1,0-0.2,0-0.3,0c-0.1,0-0.3,0-0.4,0
		c-0.1,0-0.2,0-0.3,0c-0.3-0.1-0.6-0.1-0.9-0.1c-0.3,0-0.5,0-0.7,0.1c0,0-0.1,0-0.1,0c-0.1,0-0.2,0-0.3,0c-0.1,0-0.1,0-0.2,0
		c0,0,0.1-0.1,0.1-0.1c0.1-0.1,0.1-0.2,0.2-0.3c0.1-0.2,0.1-0.4,0.1-0.6c-0.2-0.7-0.5-1.4-0.7-2c0-0.1-0.1-0.1-0.2-0.2
		c0,0-0.1,0-0.1,0c0,0,0,0-0.1,0H116l-0.9,0h0l-1.3,0l-0.2,0.6c-0.2,0.5-0.4,1-0.5,1.6c-0.1,0.3,0,0.6,0.2,0.7c0,0,0,0,0,0
		c0.1,0,0.1,0.1,0.1,0.2c0,0,0,0.1,0,0.1c0,0-0.1,0-0.1,0.1c-0.1,0-0.1,0.1-0.2,0.1c0,0,0,0,0,0c-0.2-0.1-0.5-0.2-0.8-0.2
		c-0.4,0-0.7,0.1-1.1,0.2C111.2,49.8,111.1,49.8,111.1,49.8z M115,42.9L115,42.9c-0.3,0.8-0.6,1.6-0.9,2.5h1.8c0-0.1,0-0.1,0-0.2
		c0-0.1,0-0.2,0-0.2c-0.2-0.6-0.4-1.3-0.7-1.9l-0.1-0.3L115,42.9L115,42.9z"/>
	<path class="st2" d="M107.5,47.2c0-1.8,0-3.6,0-5.3c0-0.3-0.3-0.5-0.5-0.8c-0.1-0.1-0.1-0.2-0.2-0.4c0.1-0.1,0.3-0.2,0.4-0.2
		c0.6,0.2,1.3,0.2,2,0c0.2,0,0.4,0.1,0.6,0.2c-0.1,0.1-0.3,0.3-0.4,0.3c-0.5,0.1-0.8,0.6-0.7,1c0,2.3,0,4.6,0,6.9
		c0,0.3,0.2,0.8-0.3,0.9c-0.2,0-0.6-0.3-0.8-0.5c-1.8-2-3.6-4-5.3-6.1c-0.2-0.2-0.3-0.4-0.4-0.6l-0.2,0.2c0,0.2-0.1,0.4-0.1,0.6
		c0,1.6,0,3.1,0,4.7c0,0.4,0.2,0.9,0.6,1.1c0.1,0,0.1,0.2,0.2,0.3c-0.1,0.1-0.3,0.2-0.4,0.2c-0.6-0.2-1.3-0.2-2,0
		c-0.2,0-0.4-0.1-0.6-0.2c0.1-0.1,0.3-0.3,0.4-0.3c0.4-0.1,0.7-0.5,0.7-0.9c0-1.3,0.1-2.6,0.1-3.9c0-0.8,0-1.5,0-2.3
		c0-0.5-0.3-1-0.8-1.1c-0.2,0-0.3-0.2-0.4-0.3c0.2-0.1,0.3-0.2,0.5-0.2c0.3,0,0.5,0.1,0.8,0.1c0.3,0,0.5-0.1,0.8-0.1
		c0.2,0,0.3,0,0.5,0.1c0.4,0.5,0.7,1.1,1.1,1.6c1.4,1.5,2.7,3.1,4.1,4.6C107.2,47,107.4,47.1,107.5,47.2"/>
	<path class="st2" d="M63.9,42.8c0,2,0,3.9,0,5.8c0,0.2,0.3,0.5,0.5,0.7c0.1,0.1,0.2,0.3,0.2,0.4c-0.1,0-0.3,0.2-0.4,0.1
		c-0.6-0.2-1.2-0.2-1.8,0c-0.1,0-0.3,0-0.4,0c-0.1,0-0.2-0.1-0.2-0.2c0-0.1,0.1-0.3,0.2-0.3c0.8-0.1,1-0.7,1-1.3c0-1.9,0-3.9,0-5.8
		c0-0.5-0.3-0.9-0.8-1c-0.2,0-0.3-0.2-0.4-0.3c0.2-0.1,0.3-0.2,0.5-0.2c0.3,0,0.5,0.1,0.8,0.1c0.3,0,0.5-0.1,0.8-0.1
		c0.2,0,0.3,0,0.5,0.1c0.4,0.5,0.7,1,1,1.4c1.4,1.6,2.8,3.1,4.2,4.7c0.1,0.1,0.3,0.3,0.4,0.4c0-0.2,0-0.4,0-0.5c0-1.4,0-2.8,0-4.2
		c0-0.6,0-1.2-0.7-1.4c-0.1-0.1-0.1-0.1-0.1-0.2c0.1-0.1,0.2-0.2,0.3-0.2c0,0,0.1,0,0.2,0c0.6,0.2,1.3,0.2,1.9,0c0.1,0,0.1,0,0.2,0
		c0.1,0.1,0.3,0.2,0.4,0.3c-0.1,0.1-0.2,0.2-0.3,0.3c-0.7,0.2-0.8,0.4-0.8,1.1c0,2.3,0,4.6,0,6.9c0,0.1,0,0.3,0,0.4
		c-0.1,0.2-0.1,0.4-0.3,0.5c-0.1,0.1-0.4-0.1-0.5-0.2c-0.7-0.8-1.5-1.7-2.2-2.5c-1.2-1.3-2.4-2.7-3.6-4C64.3,43.1,64.1,43,63.9,42.8
		"/>
	<path class="st2" d="M77.6,50.1L77.6,50.1c-0.2,0-0.3,0-0.4-0.1c-0.3-0.1-0.8-0.1-1.3-0.2c-0.3-0.1-0.6-0.1-0.8-0.1
		c-0.2,0-0.5,0-0.7,0.1c-0.1,0-0.3,0.1-0.4,0.1c0,0-0.1,0-0.1,0c-0.1,0-0.2-0.1-0.3-0.1c0,0-0.1-0.1-0.1-0.1c0,0,0.1-0.1,0.1-0.1
		c0.1-0.1,0.1-0.2,0.2-0.2c0.5-0.1,0.9-0.5,0.8-1c0-2.2,0-4.2,0-6.2c0-0.5-0.3-0.9-0.8-1c-0.1,0-0.1-0.1-0.2-0.2
		c0,0-0.1-0.1-0.1-0.1l0.1,0c0.1-0.1,0.2-0.1,0.3-0.2c0,0,0,0,0.1,0c0,0,0,0,0,0c0.3,0.1,0.6,0.2,1,0.2c0.4,0,0.8-0.1,1.2-0.1
		c0.4-0.1,0.8-0.1,1.2-0.1h0c0.9,0,1.7,0.1,2.5,0.2c1.9,0.5,3.2,2.3,3.1,4.3c0.1,1.3-0.4,2.6-1.3,3.5C80.6,49.5,79.1,50.1,77.6,50.1
		z M76,45.1L76,45.1c0,0.3,0,0.7,0,1v0c0,0.7,0,1.4,0,2c0,0.3,0.2,0.7,0.5,0.8c0.5,0.2,1,0.3,1.5,0.3c1,0,2-0.5,2.6-1.3
		c0.9-1.2,1.2-2.8,0.7-4.3c-0.2-1.2-1.2-2.2-2.5-2.4c-0.3-0.1-0.6-0.1-1-0.1c-0.3,0-0.7,0-1,0c-0.6,0-0.8,0.3-0.8,0.9
		c0,0.7,0,1.4,0,2.1C76,44.5,76,44.8,76,45.1L76,45.1z"/>
	<path class="st2" d="M37.8,50.1c-1.3,0-2.5-0.5-3.4-1.3c-0.9-0.9-1.4-2.2-1.5-3.4c-0.1-2.8,1.9-4.7,4.9-4.8c0.1,0,0.1,0,0.2,0
		c2.5-0.1,4.5,1.9,4.6,4.3c0,0.1,0,0.1,0,0.2c0.1,1.3-0.3,2.6-1.2,3.6c-0.9,0.9-2.1,1.5-3.4,1.5C38,50.1,37.9,50.1,37.8,50.1z
		 M37.9,41.2c-1.4-0.1-2.7,0.8-3.1,2.1c-0.6,1.6-0.3,3.5,0.8,4.8c0.5,0.7,1.4,1.2,2.3,1.2c1.1,0,2.1-0.6,2.6-1.6
		c0.4-0.8,0.6-1.6,0.7-2.5c0-0.2-0.1-0.4-0.1-0.6c-0.1-0.4-0.2-0.9-0.3-1.3C40.4,42.1,39.3,41.2,37.9,41.2L37.9,41.2L37.9,41.2z"/>
	<path class="st2" d="M55.8,50.1L55.8,50.1c-2.7,0.1-4.9-2.1-4.9-4.7c0-0.1,0-0.2,0-0.3c0-1.3,0.5-2.5,1.4-3.3
		c1-0.9,2.3-1.3,3.6-1.3h0c1.2,0,2.5,0.4,3.3,1.3c0.9,0.9,1.3,2.2,1.3,3.4c0,1.3-0.4,2.6-1.3,3.5C58.3,49.6,57,50.1,55.8,50.1z
		 M55.7,41.2c-1.1,0-2.2,0.5-2.7,1.5c-0.6,0.9-0.7,2.1-0.5,3.1c0.1,1.1,0.7,2.1,1.5,2.8c0.5,0.4,1.2,0.7,1.8,0.7
		c0.9,0,1.7-0.4,2.2-1c0.7-0.9,1-1.9,1-3c0-0.2-0.1-0.4-0.1-0.6c-0.1-0.4-0.1-0.8-0.3-1.2c-0.3-1.2-1.2-2.1-2.4-2.2
		C56.1,41.2,55.9,41.2,55.7,41.2z"/>
	<path class="st2" d="M87.6,49.8c-0.1,0-0.1,0-0.2,0c-0.4-0.1-0.8-0.2-1.2-0.2c-0.4,0-0.8,0.1-1.2,0.2c-0.1,0-0.1,0-0.2,0
		c-0.1,0-0.2,0-0.2,0c-0.1,0-0.2-0.1-0.2-0.2c0-0.1,0.1-0.2,0.2-0.2c0.8-0.2,0.9-0.8,0.9-1.4c0-2,0-3.8,0-5.5c0-0.6-0.1-1.2-0.9-1.4
		c-0.1,0-0.1-0.1-0.2-0.2c0,0,0-0.1-0.1-0.1c0,0,0.1,0,0.1-0.1c0.1-0.1,0.1-0.1,0.2-0.1c0.1,0,0.1,0,0.2,0c0.1,0,0.2,0,0.3,0
		c0.2,0.1,0.5,0.2,0.7,0.1c0.3,0,0.6,0,0.9-0.1l0.2,0c0.4-0.1,0.8-0.1,1.2-0.1c0.2,0,0.4,0,0.6,0.1c0.9,0.2,1.6,0.8,1.8,1.6
		c0.3,0.9,0.1,1.8-0.6,2.5c-0.2,0.2-0.5,0.4-0.7,0.6c-0.1,0.1-0.2,0.2-0.4,0.3c0.2,0.3,0.5,0.6,0.7,0.9c0.6,0.7,1.2,1.5,1.9,2.2
		c0.2,0.2,0.5,0.4,0.8,0.5c0.2,0.1,0.3,0.1,0.5,0.2c0.1,0.1,0.2,0.1,0.3,0.2c0,0,0.1,0.1,0.1,0.1c0,0-0.1,0.1-0.1,0.1
		c-0.1,0.1-0.2,0.1-0.3,0.2c-0.1,0-0.2,0-0.3,0c-1.2,0.1-2.4-0.5-3.1-1.5c-0.5-0.7-1.1-1.4-1.7-2l0,0c-0.2-0.3-0.5-0.4-0.8-0.4
		c-0.1,0-0.2,0-0.3,0c0,0.2,0,0.5,0,0.7c0,0.6,0,1.1,0.1,1.7c0,0.5,0.3,0.9,0.8,1c0.1,0,0.2,0.1,0.2,0.2c0,0,0.1,0.1,0.1,0.1
		l-0.1,0.1C87.8,49.7,87.7,49.8,87.6,49.8C87.6,49.8,87.6,49.8,87.6,49.8z M88,41.2c-0.2,0-0.3,0-0.5,0.1c-0.6,0.1-0.6,0.6-0.6,1
		c0,0.7,0,1.3,0,2c0,0.3,0,0.6,0,0.9h0.2h0h0.2c0.1,0,0.2,0,0.3,0c0.7,0,1.4-0.4,1.7-1.1c0.3-0.8,0.2-1.7-0.3-2.3
		C88.8,41.3,88.4,41.1,88,41.2z"/>
	<path class="st2" d="M27.9,40.4c0.4,0,0.9,0.1,1.4,0.1c0.2,0,0.4,0,0.6,0c0.6,0,0.6,0,0.6,0.6c0,0.2,0,0.4,0.1,0.7
		c0,0.3,0.1,0.5,0.1,0.8c0,0.1-0.1,0.3-0.2,0.3c0,0-0.3-0.1-0.3-0.2c-0.4-1.4-2-1.7-3.4-1.5c-1.4,0.2-2.5,1.3-2.7,2.7
		c-0.2,1.2,0,2.5,0.5,3.6c0.9,1.4,2.6,2,4.2,1.5c0.5-0.1,0.8-0.6,0.7-1.1c0-0.2,0-0.5,0-0.7c0-0.4-0.2-0.8-0.6-1
		c-0.1-0.1-0.2-0.2-0.2-0.4c0.2,0,0.3-0.2,0.4-0.1c0.6,0.2,1.3,0.2,1.9,0c0.1,0,0.3,0.1,0.4,0.1c-0.1,0.1-0.2,0.2-0.2,0.4
		c-0.1,0.2-0.4,0.5-0.4,0.7c0,0.6,0,1.3,0.1,1.9c0,0.3,0.1,0.5-0.4,0.6c-0.6,0.1-1.1,0.2-1.6,0.3c-2,0.7-4.2,0-5.5-1.6
		c-1.1-1.5-1.3-3.5-0.5-5.2c0.7-1.6,2.3-2.6,4-2.6C27.3,40.5,27.6,40.5,27.9,40.4"/>
	<path class="st2" d="M47.7,48.9c0.8,0.1,1.5-0.3,1.9-1c0.1-0.1,0.2-0.2,0.4-0.2c0.1,0.1,0.2,0.3,0.1,0.4c-0.1,0.3-0.2,0.6-0.3,0.8
		c0,0.1-0.2,0.3-0.2,0.4c0.2,0.8-0.3,0.5-0.7,0.5c-1.3-0.2-2.6-0.2-3.9-0.1c-0.2,0.1-0.4,0.1-0.6,0.1c-0.2,0-0.3-0.1-0.5-0.2
		c0.1-0.1,0.2-0.3,0.4-0.3c0.4-0.1,0.7-0.5,0.7-0.9c0-2.1,0-4.2,0-6.3c0-0.5-0.3-0.9-0.8-1c-0.1,0-0.2-0.2-0.3-0.3
		c0.1-0.1,0.3-0.2,0.4-0.2c0.9,0.2,1.9,0.2,2.9,0c0.1,0,0.2,0.1,0.3,0.2c-0.1,0.1-0.2,0.3-0.3,0.3c-0.5,0.1-0.8,0.5-0.8,1
		c0,1.9,0,3.9,0,5.8c0,0.9,0.2,0.9,1,1C47.5,48.9,47.6,48.9,47.7,48.9"/>
	<path class="st2" d="M16.4,49.9c-0.8-0.3-1.8-0.3-2.6-0.1c-0.1,0-0.3-0.1-0.5-0.2c0.1-0.1,0.2-0.3,0.3-0.3c0.4-0.1,0.7-0.5,0.7-0.9
		c0-2.1,0-4.2,0-6.3c0-0.5-0.3-0.9-0.8-1c-0.1,0-0.2-0.2-0.3-0.3c0.1-0.1,0.3-0.2,0.4-0.3c0.1,0,0.1,0,0.2,0c0.8,0.2,1.6,0.2,2.4,0
		c0.2,0,0.4,0.1,0.6,0.2c-0.1,0.1-0.3,0.2-0.4,0.3c-0.4,0.1-0.6,0.5-0.6,0.9c0,1-0.1,2-0.1,2.9c0,1.2,0.1,2.3,0.1,3.5
		c0,0.4,0.3,0.8,0.7,0.9c0.1,0.1,0.3,0.2,0.4,0.3L16.4,49.9"/>
	<path class="st2" d="M97.5,49.9c-0.8-0.3-1.7-0.3-2.6-0.1c-0.2,0-0.3-0.1-0.5-0.2c0.1-0.1,0.2-0.3,0.4-0.3c0.4-0.1,0.7-0.5,0.7-0.9
		c0-2.1,0-4.1,0-6.2c0.1-0.5-0.3-1-0.8-1c-0.1,0-0.2-0.2-0.3-0.3c0.1-0.1,0.3-0.2,0.4-0.2c1,0.2,2,0.2,2.9,0c0.1,0,0.2,0.1,0.3,0.2
		c-0.1,0.1-0.1,0.3-0.2,0.3c-0.5,0.1-0.9,0.6-0.8,1.1c0,0,0,0,0,0c0,2.1,0,4.1,0,6.2c0,0.4,0.3,0.7,0.6,0.8c0.2,0.1,0.3,0.2,0.4,0.4
		L97.5,49.9"/>
	<g transform="translate(74 59.202)">
		<path class="st0" d="M0.7,0.5H7V6H0.7V0.5z"/>
		<g>
			<defs>
				<rect id="SVGID_3_" x="0.7" y="0.5" width="6.4" height="5.5"/>
			</defs>
			<clipPath id="SVGID_4_">
				<use xlink:href="#SVGID_3_"  style="overflow:visible;"/>
			</clipPath>
			<g class="st3">
				<path class="st2" d="M4.6,6H3.2C3.1,6,3.1,5.9,3,5.9C2.9,5.8,2.8,5.8,2.6,5.7c-0.9-0.3-1.6-1-1.8-1.9C0.5,3.1,0.7,2.3,1.2,1.7
					c0.6-0.8,1.6-1.3,2.6-1.2c0.2,0,0.5,0,0.7,0c1.1,0.1,2,0.8,2.3,1.8c0.5,1.4-0.2,2.9-1.6,3.4c0,0,0,0-0.1,0
					C5.1,5.8,5,5.9,4.8,5.9C4.8,5.9,4.7,6,4.6,6L4.6,6z M3.9,1C2.8,0.9,1.8,1.7,1.7,2.9c0,0.1,0,0.1,0,0.2c0,0.7,0.3,1.3,0.7,1.8
					c0.4,0.4,0.9,0.6,1.5,0.6h0C5.1,5.5,6,4.5,6,3.4c0,0,0-0.1,0-0.1C6,2.6,5.8,2,5.4,1.5C5,1.1,4.5,0.9,3.9,1z"/>
			</g>
		</g>
	</g>
	<g transform="translate(49 59.202)">
		<path class="st0" d="M0,0.6h4.2V6H0V0.6z"/>
		<g>
			<defs>
				<rect id="SVGID_5_" x="0" y="0.6" width="4.2" height="5.4"/>
			</defs>
			<clipPath id="SVGID_6_">
				<use xlink:href="#SVGID_5_"  style="overflow:visible;"/>
			</clipPath>
			<g class="st4">
				<path class="st2" d="M3.8,6C3.7,5.9,3.6,5.9,3.5,5.8c-0.9,0-1.8,0-2.8,0c-0.2,0-0.4,0-0.6,0c0-0.1,0-0.2,0-0.2
					c0.6-0.2,0.7-0.7,0.7-1.2c0-0.7,0-1.4,0-2.1C0.8,1.6,1,1,0,0.8l0.1-0.2h3.8C3.9,0.9,4,1.3,4,1.8C3.9,1.7,3.8,1.7,3.7,1.6
					C3.3,0.9,2.7,1,2.1,1.1C1.9,1.1,1.8,1.3,1.8,1.4c0,0.4,0,0.8,0,1.2h1.8c0.1,0.2,0.1,0.5,0.2,0.8l-2-0.2c0,0.6,0,1.1,0,1.6
					C1.8,5.1,2,5.2,2.2,5.2C2.8,5.3,3.5,5.4,4,4.7c0,0,0.1-0.1,0.3-0.1L3.8,6L3.8,6z"/>
			</g>
		</g>
	</g>
	<g transform="translate(67 59.202)">
		<path class="st0" d="M0.2,0.5h5.4V6H0.2V0.5z"/>
		<g>
			<defs>
				<rect id="SVGID_7_" x="0.2" y="0.5" width="5.4" height="5.5"/>
			</defs>
			<clipPath id="SVGID_8_">
				<use xlink:href="#SVGID_7_"  style="overflow:visible;"/>
			</clipPath>
			<g class="st5">
				<path class="st2" d="M2.9,6C2.7,5.9,2.5,5.8,2.3,5.8C1.1,5.6,0.2,4.5,0.2,3.3C0.2,2,1,1,2.2,0.7C3,0.6,3.7,0.5,4.5,0.5
					c0.3,0,0.7-0.1,0.9,0.1s0.1,0.6,0.1,0.9c0,0.2,0,0.3-0.1,0.5C4.9,1.1,3.8,0.7,2.8,1C2.4,1.2,1.9,1.4,1.6,1.8
					C1,2.7,1,3.9,1.8,4.7c0.5,0.5,1.3,0.7,2,0.6c0.7-0.1,1.3-0.5,1.6-1.2l0.2,0.1L5.5,5.6L4,6H2.9z"/>
			</g>
		</g>
	</g>
	<path class="st2" d="M39,64.8c0.9-0.1,0.9-0.8,0.9-1.4c0.1-0.7,0.1-1.3,0.2-2c0-0.6,0.2-1.2-0.8-1.3l0.1-0.2H41l2.1,3.8l0.2,0
		c0.7-1.3,1.3-2.6,1.9-3.9h1.6c0,0.1-0.1,0.2-0.1,0.2c-0.6,0.1-0.6,0.6-0.6,1c0.1,0.9,0.1,1.8,0.2,2.7c0,0.5,0.1,0.9,0.7,1
		c-0.7,0.2-1.4,0.3-2.1,0c0.7-0.2,0.5-0.8,0.5-1.3c-0.1-0.7-0.1-1.4-0.2-2.1c0,0-0.1,0-0.2,0c-0.1,0.1-0.2,0.3-0.3,0.4
		c-0.5,1-1,1.9-1.5,2.9c-0.1,0.1-0.2,0.2-0.3,0.3c-0.1-0.1-0.3-0.2-0.4-0.3c-0.5-0.9-1-1.9-1.6-2.8c-0.1-0.2-0.2-0.3-0.3-0.4l-0.2,0
		c-0.1,0.9-0.1,1.9-0.1,2.8c0,0.2,0.3,0.4,0.5,0.7H39L39,64.8"/>
	<path class="st2" d="M57.7,59.8c-0.5,0.5-0.2,1.2,0.6,1.9c0.3-0.4,0.6-0.8,0.8-1.2c0.1-0.2-0.1-0.4-0.2-0.7h1.8l0,0.1
		c-0.2,0.1-0.5,0.3-0.7,0.4c-0.5,0.5-0.9,1.1-1.4,1.6c-0.1,0.1-0.1,0.3,0,0.4c0.4,0.6,0.9,1.2,1.4,1.8c0.2,0.3,0.6,0.4,0.9,0.7h-2.4
		l0.5-0.4l-1.1-1.7c-0.5,0.6-0.9,1.1-1.3,1.7c0.2,0.1,0.4,0.2,0.5,0.3c0,0,0,0.1,0,0.1c-0.7,0-1.3,0.1-2,0.1c0-0.1,0-0.1,0-0.2
		c0.3-0.2,0.7-0.4,1-0.6c0.5-0.5,1-1,1.4-1.6c0.1-0.1,0.1-0.3,0.1-0.4c-0.4-0.6-0.9-1.2-1.3-1.7c-0.2-0.1-0.3-0.3-0.5-0.3
		c-0.1-0.1-0.2-0.2-0.3-0.3c0.1,0,0.2-0.1,0.4-0.1c0.5,0,1,0,1.5,0C57.3,59.8,57.5,59.8,57.7,59.8"/>
	<path class="st2" d="M65.1,64.9h-2.2l-0.1-0.1c1-0.3,0.8-1,0.8-1.7c0-0.7,0-1.5,0-2.2c0-0.4-0.1-0.8-0.6-0.9
		c-0.1,0-0.1-0.1-0.2-0.2h2.4c0,0,0,0.1,0,0.1c-0.1,0.1-0.1,0.1-0.2,0.2c-0.3,0.1-0.5,0.3-0.5,0.6c0,1.1,0,2.2,0,3.3
		C64.5,64.4,64.8,64.6,65.1,64.9"/>
	<path class="st2" d="M50.7,58.9c0.2-0.2,0.3-0.2,0.4-0.3c0.3-0.3,0.6-0.5,0.9-0.8c0.1-0.1,0.4-0.2,0.4-0.1c0.1,0.2,0.2,0.4,0.2,0.5
		C52.1,58.7,51.4,59,50.7,58.9"/>
</g>
</svg>
