<?xml version="1.0" encoding="utf-8"?>
<!-- Generator: Adobe Illustrator 23.0.6, SVG Export Plug-In . SVG Version: 6.00 Build 0)  -->
<svg version="1.1" id="Layer_1" xmlns="http://www.w3.org/2000/svg" xmlns:xlink="http://www.w3.org/1999/xlink" x="0px" y="0px"
	 viewBox="0 0 31.9 28.6" style="enable-background:new 0 0 31.9 28.6;" xml:space="preserve">
<style type="text/css">
	.st0{fill:none;}
	.st1{clip-path:url(#SVGID_2_);}
	.st2{fill:#5384E1;}
</style>
<g transform="translate(0 -1)">
	<g transform="translate(44 0.202)">
		<path class="st0" d="M-44,0.8h31.9v28.6H-44V0.8z"/>
		<g>
			<g>
				<defs>
					<rect id="SVGID_1_" x="-44" y="0.8" width="31.9" height="28.6"/>
				</defs>
				<clipPath id="SVGID_2_">
					<use xlink:href="#SVGID_1_"  style="overflow:visible;"/>
				</clipPath>
				<g class="st1">
					<path class="st2" d="M-36.4,29.4c-0.2,0-0.3-0.1-0.4-0.2c-0.1-0.1-0.1-0.2,0-0.4c0.1-0.1,0.2-0.2,0.3-0.3
						c0.3-0.1,0.6-0.2,0.8-0.3c0.3-0.1,0.7-0.2,1-0.4c0.3-0.1,0.5-0.2,0.8-0.3c0.1-0.1,0.2-0.1,0.3-0.2c0.2-0.1,0.4-0.2,0.7-0.3
						c0.1,0,0.1-0.1,0.1-0.1l0.2-0.1l0,0c0.3-0.2,0.5-0.3,0.8-0.5c0.1-0.1,0.2-0.2,0.3-0.2c0.1-0.1,0.1-0.1,0.2-0.2
						c0.1-0.1,0.1-0.1,0.2-0.2c0.2-0.1,0.3-0.3,0.5-0.4c0.2-0.1,0.3-0.2,0.5-0.3c0.2-0.1,0.3-0.1,0.5-0.2c0.1-0.1,0.3-0.2,0.3-0.4
						c0.1-0.3,0.3-0.7,0.6-0.9c0.1-0.1,0.2-0.2,0.2-0.3c0.1-0.2,0.2-0.4,0.3-0.6c0.1-0.4,0.4-0.7,0.8-0.9c0.3-0.1,0.6-0.2,0.9-0.4
						c0.1-0.1,0.2-0.1,0.3-0.2c0.1,0,0.2-0.1,0.3-0.1c0.2-0.1,0.3-0.2,0.2-0.4c0-0.1-0.1-0.2-0.2-0.2s-0.2,0-0.2,0.1
						c-0.2,0.1-0.5,0.1-0.7,0.2l0,0c-0.1,0-0.2-0.1-0.3-0.1c-0.7-0.9-1.7-1.5-2.9-1.8c-1.6-0.5-3.4-1.1-5.1-1.6
						c-1.8-0.6-3.6-1.4-5.2-2.4c-0.3-0.3-0.8-0.5-1.2-0.8c-0.5-0.3-0.9-0.5-1.4-0.8c-0.2-0.2-0.5-0.4-0.7-0.6
						c-0.1-0.1-0.2-0.2-0.3-0.3c-0.1,0-0.1-0.1-0.1-0.2c0-0.1,0-0.3-0.1-0.4c0-0.1,0-0.1,0-0.2c0.1,0,0.1,0,0.2,0c0.1,0,0.2,0,0.3,0
						L-43,12l0,0c0.9,0.4,1.8,0.9,2.6,1.3c1.7,0.9,3.6,1.5,5.5,1.8c0.2,0,0.4,0.1,0.7,0.1c0.4,0.1,0.9,0.2,1.3,0.3
						c0.1,0,0.3,0,0.4,0c0.3,0,0.6,0,0.9-0.1c0.2,0,0.3-0.1,0.3-0.2s0-0.2-0.1-0.4c-0.2-0.3-0.5-0.7-0.7-1l0,0
						c-0.5-0.8-1.1-1.6-1.6-2.4c-0.2-0.2-0.3-0.5-0.5-0.7c-1.1-1.3-1.9-2.7-2.7-4.2c-0.4-0.9-0.7-1.7-1.1-2.6l-0.3-0.7
						c0-0.1-0.1-0.3-0.1-0.4c0-0.1,0-0.1-0.1-0.2l0.1-0.1l0,0c0.1,0,0.1,0.1,0.2,0.1c0.1,0.1,0.3,0.2,0.4,0.3l0.1,0.1
						c0.5,0.6,1,1.2,1.4,1.9c0.3,0.5,0.6,0.9,0.9,1.4c0.5,0.9,1.1,1.8,1.8,2.6c1.5,1.9,3.2,3.7,5,5.4c0.6,0.5,1.3,0.9,2.1,1.1
						c1.1,0.3,2.3,0.5,3.4,0.7c0.4,0.1,0.7,0.1,1.1,0.2l0,0c0,0,0,0,0.1,0h0.1l-0.1-0.1c-0.2-0.1-0.2-0.2-0.3-0.2
						c-0.1-0.1-0.1-0.2-0.1-0.3c0-0.6,0.2-1.2,0.6-1.7c0.3-0.5,0.4-1,0.4-1.5c0-0.2,0-0.5,0-0.7c0-0.4,0-0.9,0-1.3
						c0-0.1,0-0.3,0.1-0.4c0.2-0.8,0.2-1.7-0.2-2.5c-0.1-0.3-0.1-0.5-0.1-0.8c0-0.1,0-0.2,0-0.2c0-0.4-0.1-0.9-0.4-1.2L-22,5.3
						c-0.4-0.8-0.8-1.6-1.4-2.4C-23.6,2.6-23.8,2.3-24,2c-0.1-0.4-0.1-0.4-0.2-0.5c-0.1-0.2,0-0.4,0.2-0.5c0,0,0,0,0.1,0
						c0,0,0.1,0,0.1-0.1l0,0h0.1c0.3,0.1,0.5,0.4,0.7,0.7c0.1,0.1,0.2,0.3,0.3,0.4c0.3,0.3,0.5,0.6,0.8,0.9s0.6,0.6,0.9,1l0.2,0.1
						c1.1,1.2,2.1,2.5,3.1,3.8c0.6,0.9,1,1.8,1.3,2.9l0,0c0,0.1,0.1,0.3,0.1,0.4c0.6,1.9,0.4,3.9-0.6,5.6c0,0,0,0.1-0.1,0.1v0.1
						l0.3,0.1c0.2,0.1,0.5,0.1,0.7,0.2c0.6,0.2,1.2,0.6,1.7,1.2s1,1,1.7,1.3c0,0,0.1,0,0.1,0.1c0.2,0.1,0.3,0.3,0.3,0.4
						s-0.1,0.2-0.3,0.3c-0.4,0.2-0.7,0.5-1.1,0.8c-0.1,0.1-0.2,0.2-0.3,0.2c-1.5,1.1-3.3,1.8-5.1,1.9h-0.1c-0.3,0-0.6,0.1-0.9,0.1
						s-0.4,0.1-0.5,0.4c-0.1,0.1-0.1,0.2-0.2,0.3c-0.2,0.6-0.5,1.1-0.9,1.7c-0.6,0.9-1.4,1.5-2.5,1.8c-1.1,0.4-2.2,0.6-3.4,0.6h-0.2
						h-0.2c-0.7,0-1.3,0.1-2,0.2c-0.3,0-0.6,0.1-0.9,0.1l-2.4,0.4l0,0c-1,0.1-2,0.2-3,0.4l0,0C-36.3,29.4-36.3,29.4-36.4,29.4z
						 M-19.2,22.2L-19.2,22.2c-0.5,0-0.8,0.4-0.9,0.8h0.1h0.1h0.1c0.2,0,0.5-0.1,0.7-0.1c0.6-0.1,1.2-0.1,1.8-0.3
						c1.2-0.2,2.3-0.8,3.1-1.7c0.3-0.2,0.4-0.6,0.5-1c-0.1-0.3-0.3-0.6-0.6-0.8c-0.4-0.3-0.9-0.4-1.4-0.4c-0.7,0-1.3,0.2-1.8,0.6
						c-0.1,0.1-0.1,0.2-0.2,0.3c0,0.1-0.1,0.1-0.1,0.2h0.2c0.1,0,0.1,0,0.1,0l0,0l2.3-0.5c0.1,0,0.1,0,0.2,0c0.2,0,0.3,0.1,0.4,0.2
						c0.2,0.3,0.2,0.6,0.1,0.9c-0.1,0.1-0.2,0.2-0.3,0.3c-0.1,0-0.2-0.1-0.3-0.2c-0.2-0.2-0.4-0.4-0.7-0.4l0,0
						c-0.6,0.1-1.2,0.3-1.7,0.7c0,0-0.1,0.2,0,0.2c0,0,0.1,0.1,0.2,0.1l0,0c0.1,0,0.1,0,0.2,0s0.1,0,0.2,0l0,0c0.1,0,0.2,0,0.2,0.1
						h0.1v0.1c0,0.1,0,0.2-0.1,0.2c-0.2,0.1-0.3,0.2-0.5,0.3c-0.1,0-0.2,0.1-0.3,0.1l0,0c-0.1,0-0.1,0.1-0.2,0.1
						c-0.1,0.2-0.3,0.3-0.4,0.3s-0.2,0-0.3-0.1C-18.8,22.2-19,22.2-19.2,22.2L-19.2,22.2z"/>
				</g>
			</g>
		</g>
	</g>
</g>
</svg>
