<?xml version="1.0" encoding="utf-8"?>
<!-- Generator: Adobe Illustrator 23.1.1, SVG Export Plug-In . SVG Version: 6.00 Build 0)  -->
<svg version="1.1" id="Layer_1" xmlns="http://www.w3.org/2000/svg" xmlns:xlink="http://www.w3.org/1999/xlink" x="0px" y="0px"
	 viewBox="0 0 42 34" style="enable-background:new 0 0 42 34;" xml:space="preserve">
<style type="text/css">
	.st0{enable-background:new    ;}
	.st1{fill:#C3D2E5;}
</style>
<g class="st0">
	<path class="st1" d="M18.52,0.59L19,1.91C11.8,4.07,4.72,10.67,4.72,17.87c0,3.6,11.88,1.08,11.88,8.76c0,4.56-3.72,6.12-6.72,6.12
		c-3.24,0-8.76-2.88-8.76-9.96C1.12,16.07,4.84,4.67,18.52,0.59z M40.96,0.59l0.48,1.32c-7.2,2.16-14.28,8.76-14.28,15.96
		c0,3.6,11.88,1.08,11.88,8.76c0,4.56-3.72,6.12-6.72,6.12c-3.24,0-8.76-2.88-8.76-9.96C23.56,16.07,27.28,4.67,40.96,0.59z"/>
</g>
</svg>
